<svg width="32" height="32" viewBox="0 0 32 32" fill="none" xmlns="http://www.w3.org/2000/svg">
<path id="Link icon" d="M14.2281 0.73125C15.2031 -0.24375 16.7844 -0.24375 17.7656 0.73125L22.3969 5.3625C23.1781 6.14375 23.1781 7.4125 22.3969 8.19375L17.4156 13.175C16.6344 13.9563 15.3656 13.9563 14.5844 13.175L9.60312 8.1875C8.82187 7.40625 8.82187 6.1375 9.60312 5.35625L14.2344 0.725L14.2281 0.73125ZM8.18437 9.60625L13.1656 14.5875C13.9469 15.3687 13.9469 16.6375 13.1656 17.4188L8.18437 22.3937C7.40312 23.175 6.13437 23.175 5.35312 22.3937L0.728122 17.7687C-0.246878 16.7937 -0.246878 15.2125 0.728122 14.2312L5.35937 9.6C6.14062 8.81875 7.40937 8.81875 8.19062 9.6L8.18437 9.60625ZM9.60312 23.8125L14.5844 18.8312C15.3656 18.05 16.6344 18.05 17.4156 18.8312L22.3906 23.8125C23.1719 24.5938 23.1719 25.8625 22.3906 26.6437L17.7594 31.275C16.7844 32.25 15.2031 32.25 14.2219 31.275L9.59062 26.6437C8.80937 25.8625 8.80937 24.5938 9.59062 23.8125H9.60312ZM23.8094 22.3937L18.8281 17.4125C18.0469 16.6313 18.0469 15.3625 18.8281 14.5813L23.8094 9.60625C24.5906 8.825 25.8594 8.825 26.6406 9.60625L31.2719 14.2375C32.2469 15.2125 32.2469 16.7937 31.2719 17.775L26.6406 22.4062C25.8594 23.1875 24.5906 23.1875 23.8094 22.4062V22.3937Z" fill="#754FF6"/>
</svg>
