<svg width="28" height="28" viewBox="0 0 28 28" fill="none" xmlns="http://www.w3.org/2000/svg">
<path id="Link icon" d="M0 2.5C0 1.11875 1.11875 0 2.5 0H5.5C6.88125 0 8 1.11875 8 2.5V5.5C8 6.88125 6.88125 8 5.5 8H2.5C1.11875 8 0 6.88125 0 5.5V2.5ZM0 12.5C0 11.1187 1.11875 10 2.5 10H5.5C6.88125 10 8 11.1187 8 12.5V15.5C8 16.8813 6.88125 18 5.5 18H2.5C1.11875 18 0 16.8813 0 15.5V12.5ZM8 22.5V25.5C8 26.8813 6.88125 28 5.5 28H2.5C1.11875 28 0 26.8813 0 25.5V22.5C0 21.1187 1.11875 20 2.5 20H5.5C6.88125 20 8 21.1187 8 22.5ZM10 2.5C10 1.11875 11.1187 0 12.5 0H15.5C16.8813 0 18 1.11875 18 2.5V5.5C18 6.88125 16.8813 8 15.5 8H12.5C11.1187 8 10 6.88125 10 5.5V2.5ZM18 12.5V15.5C18 16.8813 16.8813 18 15.5 18H12.5C11.1187 18 10 16.8813 10 15.5V12.5C10 11.1187 11.1187 10 12.5 10H15.5C16.8813 10 18 11.1187 18 12.5ZM10 22.5C10 21.1187 11.1187 20 12.5 20H15.5C16.8813 20 18 21.1187 18 22.5V25.5C18 26.8813 16.8813 28 15.5 28H12.5C11.1187 28 10 26.8813 10 25.5V22.5ZM28 2.5V5.5C28 6.88125 26.8813 8 25.5 8H22.5C21.1187 8 20 6.88125 20 5.5V2.5C20 1.11875 21.1187 0 22.5 0H25.5C26.8813 0 28 1.11875 28 2.5ZM20 12.5C20 11.1187 21.1187 10 22.5 10H25.5C26.8813 10 28 11.1187 28 12.5V15.5C28 16.8813 26.8813 18 25.5 18H22.5C21.1187 18 20 16.8813 20 15.5V12.5ZM28 22.5V25.5C28 26.8813 26.8813 28 25.5 28H22.5C21.1187 28 20 26.8813 20 25.5V22.5C20 21.1187 21.1187 20 22.5 20H25.5C26.8813 20 28 21.1187 28 22.5Z" fill="#754FF6"/>
</svg>
