<svg width="32" height="28" viewBox="0 0 32 28" fill="none" xmlns="http://www.w3.org/2000/svg">
<path id="Link icon" d="M22 24H26C27.1063 24 28 23.1063 28 22V6C28 4.89375 27.1063 4 26 4H22C20.8937 4 20 3.10625 20 2C20 0.89375 20.8937 0 22 0H26C29.3125 0 32 2.6875 32 6V22C32 25.3125 29.3125 28 26 28H22C20.8937 28 20 27.1063 20 26C20 24.8937 20.8937 24 22 24ZM8.38125 23.3813L0.70625 15.7062C0.25625 15.2562 0 14.6375 0 14C0 13.3625 0.25625 12.7437 0.70625 12.2937L8.38125 4.61875C8.78125 4.21875 9.31875 4 9.88125 4C11.05 4 12 4.95 12 6.11875V10H20C21.1063 10 22 10.8938 22 12V16C22 17.1063 21.1063 18 20 18H12V21.8813C12 23.05 11.05 24 9.88125 24C9.31875 24 8.78125 23.775 8.38125 23.3813Z" fill="#E5807C"/>
</svg>
