<svg width="34" height="32" viewBox="0 0 34 32" fill="none" xmlns="http://www.w3.org/2000/svg">
<path id="Link icon" d="M33.2238 6.49376L29.6425 0.825006C29.3238 0.318756 28.755 0.0062561 28.1488 0.0062561H5.84876C5.24251 0.0062561 4.67376 0.318756 4.35501 0.825006L0.767513 6.49376C-1.08249 9.41876 0.555013 13.4875 4.01126 13.9563C4.26126 13.9875 4.51751 14.0063 4.76751 14.0063C6.39876 14.0063 7.84876 13.2938 8.84251 12.1938C9.83626 13.2938 11.2863 14.0063 12.9175 14.0063C14.5488 14.0063 15.9988 13.2938 16.9925 12.1938C17.9863 13.2938 19.4363 14.0063 21.0675 14.0063C22.705 14.0063 24.1488 13.2938 25.1425 12.1938C26.1425 13.2938 27.5863 14.0063 29.2175 14.0063C29.4738 14.0063 29.7238 13.9875 29.9738 13.9563C33.4425 13.4938 35.0863 9.42501 33.23 6.49376H33.2238ZM30.23 15.9375C30.23 15.9375 30.23 15.9375 30.2238 15.9375C29.8925 15.9813 29.555 16.0063 29.2113 16.0063C28.4363 16.0063 27.6925 15.8875 26.9988 15.675V24.0063H6.99876V15.6688C6.29876 15.8875 5.54876 16.0063 4.77376 16.0063C4.43001 16.0063 4.08626 15.9813 3.75501 15.9375H3.74876C3.49251 15.9 3.24251 15.8563 2.99876 15.7938V24.0063V28.0063C2.99876 30.2125 4.79251 32.0063 6.99876 32.0063H26.9988C29.205 32.0063 30.9988 30.2125 30.9988 28.0063V24.0063V15.7938C30.7488 15.8563 30.4988 15.9063 30.23 15.9375Z" fill="#754FF6"/>
</svg>
